<svg width="50" height="22" viewBox="0 0 50 22" fill="currentColor" xmlns="http://www.w3.org/2000/svg">
  <path d="M40.484 11.093l4.463 3.562a2 2 0 01.167 2.977l-3.196 3.196A4 4 0 0139.089 22h-3.263a4 4 0 01-2.495-.874l-1.251-.998a2 2 0 01-.167-2.977l5.91-5.91a2 2 0 012.661-.148zM41.174 0a4 4 0 012.495.874l4.975 3.971a2 2 0 01-1.248 3.563h-8.659a4 4 0 00-2.828 1.171l-6.302 6.302a2 2 0 01-2.662.149l-4.17-3.329a2 2 0 00-1.247-.437h-7.765a4 4 0 01-2.496-.874L1.463 3.563A2 2 0 012.71 0h38.463z"/>
</svg>
