<svg width="20" height="25" viewBox="0 0 20 25" fill="currentColor" xmlns="http://www.w3.org/2000/svg">
  <path d="M15.326 24.94c-.407-.116-.82-.593-.906-1.05-.057-.296.012-.502.444-1.325 1.742-3.325 2.5-6.385 2.5-10.099 0-3.59-.671-6.382-2.337-9.73-.357-.718-.65-1.385-.65-1.482 0-.356.302-.872.63-1.075.448-.277 1.2-.226 1.56.108.138.128.497.71.798 1.293a24.334 24.334 0 012.412 7.477c.25 1.631.3 4.723.1 6.217-.368 2.755-1.105 5.213-2.286 7.622-.713 1.456-1.16 2.054-1.536 2.054-.075 0-.197.019-.272.041-.074.023-.28 0-.457-.05zm-4.851-2.503c-.624-.179-1.074-.934-.894-1.5.044-.137.338-.768.653-1.402 1.335-2.684 1.89-5.563 1.618-8.389-.224-2.322-.646-3.786-1.708-5.929-.713-1.437-.746-1.66-.332-2.239.394-.55 1.378-.64 1.895-.172.358.325 1.473 2.62 1.903 3.92 1.423 4.3 1.206 8.918-.618 13.143-.935 2.165-1.59 2.834-2.517 2.568zM5.473 19.9a1.496 1.496 0 01-.808-.979c-.055-.247.04-.52.497-1.434 1.68-3.356 1.698-6.588.056-9.866-.722-1.44-.738-1.727-.127-2.294.3-.28.429-.33.851-.33.71 0 1.078.351 1.712 1.636.975 1.975 1.374 3.689 1.37 5.884-.003 2.257-.376 3.806-1.418 5.89-.596 1.192-.891 1.507-1.488 1.588a1.414 1.414 0 01-.645-.095zM.805 17.535C.5 17.41.151 17 .047 16.643c-.115-.398-.02-.714.438-1.457.59-.957.727-1.47.727-2.72 0-1.25-.138-1.763-.727-2.72-.2-.324-.4-.712-.446-.863-.19-.63.342-1.403 1.058-1.535.606-.112 1.022.154 1.58 1.013 1.614 2.485 1.614 5.805 0 8.269-.57.87-1.206 1.177-1.872.905z"/>
</svg>
