<svg width="577" height="59" viewBox="0 0 577 59" fill="currentColor" xmlns="http://www.w3.org/2000/svg">
  <path d="M144.433 19.821c0-10.588-6.943-18.64-21.265-18.64H94.37v55.662h13.555V13.214h15.332c5.674 0 7.705 3.219 7.705 6.944 0 3.816-2.115 6.948-7.794 6.948h-13.127l18.636 29.737h15.42s-12.709-19.994-12.63-19.994c7.884-1.86 12.966-7.37 12.966-17.028zM85.221 1.182H71.665v55.662h13.556V1.182zM28.377 1.181L0 56.844h15.251l4.593-9.322h22.851L37.017 35.83H25.609l8.441-17.11h.169l18.98 38.124h15.588L40.404 1.181H28.377zM193.909 27.956c4.325-2.373 6.611-6.187 6.611-11.78 0-8.977-6.696-14.995-17.962-14.995h-31.682v55.662h32.953c11.519 0 19.061-6.186 19.061-15.589 0-6.523-3.64-11.437-8.981-13.298zm-29.482-14.999h18.131c2.711 0 4.831 2.117 4.831 4.916 0 2.798-2.12 4.915-4.919 4.915h-18.043v-9.831zm18.468 32.191h-18.468V33.797h18.468c3.308 0 5.851 2.373 5.851 5.589 0 3.309-2.543 5.762-5.851 5.762zM245.673 32.278c0 8.444-3.9 13.127-11.606 13.127-7.626 0-11.519-4.684-11.519-13.127V1.181h-13.896v30.075c0 17.195 9.063 26.769 25.414 26.769 16.346 0 25.495-9.574 25.495-26.769V1.181h-13.889v31.097h.001zM295.738 23.294c-12.875-3.132-15.67-3.426-15.67-7.117 0-2.848 3.217-4.234 8.637-4.234 7.201 0 14.873 1.803 19.232 4.491l4.318-11.351C306.665 2.116 298.446 0 288.872 0c-14.31 0-22.364 7.116-22.364 16.69 0 10.298 6.015 14.479 19.826 17.445 10.75 2.373 13.047 3.851 13.047 6.868 0 3.269-2.968 4.737-8.816 4.737-8.464 0-16.136-2.051-22.276-5.421L264.14 52.18c6.692 3.559 16.69 5.844 26.771 5.844 14.061 0 22.447-6.521 22.447-17.447-.001-8.765-5.674-14.405-17.62-17.283zM361.73 1.198l-28.371 55.646h15.244l4.594-9.318h22.846l-5.676-11.687h-11.405l8.442-17.113h.168l18.972 38.118h15.585L373.751 1.198H361.73zM430.234 57.727c-11.691 0-21.916-4.062-30.376-12.07l-.747-.716 8.66-8.552.704.72c5.513 5.631 12.936 8.483 22.038 8.483 9.096 0 13.705-2.048 13.705-6.106 0-1.118-.332-2.71-3.166-3.637-2.186-.754-5.961-1.133-11.235-1.133h-9.823V22.504h11.645c6.814 0 10.271-1.577 10.271-4.7 0-1.379-.999-2.5-3.055-3.431-2.296-1.041-5.539-1.565-9.669-1.565-6.286 0-12.392 1.615-18.142 4.793l-.851.47-5.735-9.727.782-.525c7.368-4.988 15.867-7.507 25.272-7.507 7.592 0 13.713 1.505 18.195 4.482 4.483 2.967 6.75 6.96 6.75 11.856 0 4.51-1.811 8.204-5.388 10.987 5.252 2.725 7.906 6.86 7.906 12.334 0 5.597-2.485 10.029-7.39 13.169-4.763 3.041-11.607 4.587-20.351 4.587zM515.927 56.844h-56.229l.046-1.084c.62-14.429 7.972-24.071 21.836-28.653l14.536-4.326c3.02-1.095 4.551-2.485 4.551-4.12 0-3.904-3.629-5.799-11.094-5.799-6.814 0-13.256 2.515-19.126 7.464l-.757.648-8.771-9.379.896-.701C470.793 3.886 480.176.329 489.714.329c7.308 0 13.333 1.734 17.919 5.175 4.67 3.507 7.037 8.074 7.037 13.541 0 4.394-1.383 7.912-4.135 10.466-2.645 2.453-6.859 4.494-12.518 6.06-10.317 2.875-12.82 3.648-13.392 3.851-3.258 1.263-5.926 2.954-7.935 5.029h39.234v12.393h.003zM547.961 57.728c-9.918 0-17.899-4.192-23.73-12.442-3.403-4.8-5.13-10.262-5.13-16.23 0-5.915 1.727-11.38 5.13-16.235 2.76-3.966 6.24-7.07 10.339-9.249 4.093-2.166 8.58-3.258 13.33-3.258 4.739 0 9.222 1.092 13.312 3.258 4.099 2.179 7.571 5.253 10.338 9.173 3.455 4.903 5.203 10.393 5.203 16.312 0 5.965-1.727 11.446-5.13 16.3-2.721 3.927-6.19 7.002-10.278 9.141-4.089 2.139-8.591 3.23-13.384 3.23zm0-45.073c-4.598 0-8.392 1.539-11.281 4.541-2.906 3.035-4.379 7.02-4.379 11.859 0 4.739 1.47 8.659 4.375 11.656 2.894 2.986 6.66 4.503 11.224 4.503 4.59 0 8.388-1.524 11.271-4.529 2.901-3.032 4.383-6.938 4.383-11.63 0-4.793-1.481-8.771-4.383-11.821-2.892-3.036-6.663-4.579-11.21-4.579z"/>
</svg>
